<?xml version="1.0" encoding="UTF-8"?>
<svg version="1.1" xmlns="http://www.w3.org/2000/svg" width="32" height="32">
<path d="M0 0 C10.56 0 21.12 0 32 0 C32 10.56 32 21.12 32 32 C21.44 32 10.88 32 0 32 C0 21.44 0 10.88 0 0 Z " fill="#4D3D28" transform="translate(0,0)"/>
<path d="M0 0 C10.56 0 21.12 0 32 0 C32 10.56 32 21.12 32 32 C21.44 32 10.88 32 0 32 C0 28.04 0 24.08 0 20 C0.99 21.32 1.98 22.64 3 24 C4.64694485 25.68615782 6.31126121 27.35570171 8 29 C8.33 29.33 8.66 29.66 9 30 C14.7629402 30.56435573 20.295769 30.73926054 25 27 C25.97873538 23.40614946 25.97873538 23.40614946 26 20 C26.66 20 27.32 20 28 20 C28.33 20.33 28.66 20.66 29 21 C29 20.01 29 19.02 29 18 C28.34 18 27.68 18 27 18 C27.33 17.34 27.66 16.68 28 16 C28.99 16.33 29.98 16.66 31 17 C30.10670798 10.88028302 29.15556126 6.92804667 24 3 C21.82653432 2.13880866 21.82653432 2.13880866 20 2 C21.32 3.32 22.64 4.64 24 6 C22.68 5.67 21.36 5.34 20 5 C19.690625 5.9590625 19.690625 5.9590625 19.375 6.9375 C18 9 18 9 14.875 9.75 C13.451875 9.87375 13.451875 9.87375 12 10 C12 11.65 12 13.3 12 15 C13.0725 14.79375 14.145 14.5875 15.25 14.375 C19 14 19 14 23 16 C18.38 16.33 13.76 16.66 9 17 C8.67 16.34 8.34 15.68 8 15 C8.99 15 9.98 15 11 15 C7.71303767 14.20046862 6.28976808 13.90341064 3 15 C2.67 14.34 2.34 13.68 2 13 C1.01 13.495 1.01 13.495 0 14 C0 9.38 0 4.76 0 0 Z " fill="#B19F73" transform="translate(0,0)"/>
<path d="M0 0 C4.29 0 8.58 0 13 0 C13 10.56 13 21.12 13 32 C2.44 32 -8.12 32 -19 32 C-19 28.04 -19 24.08 -19 20 C-18.01 21.32 -17.02 22.64 -16 24 C-14.35305515 25.68615782 -12.68873879 27.35570171 -11 29 C-10.67 29.33 -10.34 29.66 -10 30 C-4.2370598 30.56435573 1.295769 30.73926054 6 27 C6.97873538 23.40614946 6.97873538 23.40614946 7 20 C7.66 20 8.32 20 9 20 C9.33 20.33 9.66 20.66 10 21 C10 20.01 10 19.02 10 18 C9.34 18 8.68 18 8 18 C8.33 17.34 8.66 16.68 9 16 C9.99 16.33 10.98 16.66 12 17 C11.10421126 10.86317862 10.14643974 6.94959329 5 3 C2.33466965 1.680982 2.33466965 1.680982 0 1 C0 0.67 0 0.34 0 0 Z " fill="#A79364" transform="translate(19,0)"/>
<path d="M0 0 C1.485 0.99 1.485 0.99 3 2 C5.55936559 1.67147918 5.55936559 1.67147918 8 1 C8.66 1 9.32 1 10 1 C10 2 10 3 10 4 C11.093125 3.95875 12.18625 3.9175 13.3125 3.875 C17 4 17 4 20 6 C18 8 18 8 15.375 8.125 C14.59125 8.08375 13.8075 8.0425 13 8 C13 7.01 13 6.02 13 5 C12.34 5 11.68 5 11 5 C11 5.99 11 6.98 11 8 C10.34 8 9.68 8 9 8 C9 8.66 9 9.32 9 10 C10.32 10 11.64 10 13 10 C14.8125 11.6875 14.8125 11.6875 16 14 C15.6875 16.75 15.6875 16.75 15 19 C10.57976559 19.44202344 8.52390134 19.34255088 4.75 16.875 C1.08092336 13.03914715 -0.83908053 10.09195307 -1.25 4.75 C-1 2 -1 2 0 0 Z " fill="#665330" transform="translate(1,12)"/>
<path d="M0 0 C3.95781786 0.27612683 5.69956508 0.74053348 8.75 3.375 C12.61332201 7.88220901 13.22247514 10.10440886 13 16 C11.68 16.33 10.36 16.66 9 17 C9.66 17 10.32 17 11 17 C11.33 18.32 11.66 19.64 12 21 C11.34 21 10.68 21 10 21 C10 20.34 10 19.68 10 19 C9.34 19 8.68 19 8 19 C7.67 20.32 7.34 21.64 7 23 C7 22.34 7 21.68 7 21 C5.68 20.67 4.36 20.34 3 20 C3.495 19.38125 3.99 18.7625 4.5 18.125 C6.19222773 16.16119096 6.19222773 16.16119096 6 14 C5.24714403 11.40952023 5.24714403 11.40952023 4 9 C3.01 8.67 2.02 8.34 1 8 C1 6.35 1 4.7 1 3 C1.66 3 2.32 3 3 3 C2.01 2.67 1.02 2.34 0 2 C0 1.34 0 0.68 0 0 Z " fill="#6B5C3F" transform="translate(18,1)"/>
<path d="M0 0 C4.29 0 8.58 0 13 0 C12.01 0.66 11.02 1.32 10 2 C5.30486171 5.47168355 2.27690801 8.04109594 1 14 C0.67 14 0.34 14 0 14 C0 9.38 0 4.76 0 0 Z " fill="#FEFDF4" transform="translate(0,0)"/>
<path d="M0 0 C4.29 0 8.58 0 13 0 C13 3.96 13 7.92 13 12 C12.4225 11.2575 11.845 10.515 11.25 9.75 C7.78752642 5.51808784 5.26930248 2.75643416 0 1 C0 0.67 0 0.34 0 0 Z " fill="#FDFBF3" transform="translate(19,0)"/>
<path d="M0 0 C0.33 1.32 0.66 2.64 1 4 C-0.32 4 -1.64 4 -3 4 C-3 4.99 -3 5.98 -3 7 C-2.34 7.33 -1.68 7.66 -1 8 C-3.5654594 10.5654594 -5.47686668 10.54046087 -9 11 C-9.66 9.35 -10.32 7.7 -11 6 C-10.01 5.01 -9.02 4.02 -8 3 C-7.67 3.66 -7.34 4.32 -7 5 C-6.21625 4.360625 -5.4325 3.72125 -4.625 3.0625 C-2 1 -2 1 0 0 Z " fill="#9D8B65" transform="translate(12,4)"/>
<path d="M0 0 C0.33 0 0.66 0 1 0 C1 4.29 1 8.58 1 13 C-2.96 13 -6.92 13 -11 13 C-10.01 12.34 -9.02 11.68 -8 11 C-4.0615125 8.21445047 -4.0615125 8.21445047 -2 4 C-1.34 4 -0.68 4 0 4 C0 2.68 0 1.36 0 0 Z " fill="#FDFCF8" transform="translate(31,19)"/>
<path d="M0 0 C0.99 1.32 1.98 2.64 3 4 C5.88117056 7.0289229 8.63820806 9.47865604 12 12 C8.04 12 4.08 12 0 12 C0 8.04 0 4.08 0 0 Z " fill="#FCFBF9" transform="translate(0,20)"/>
<path d="M0 0 C1.98 0.99 3.96 1.98 6 3 C6 3.99 6 4.98 6 6 C6.66 6 7.32 6 8 6 C8.33 7.32 8.66 8.64 9 10 C7.68 10.33 6.36 10.66 5 11 C4.731875 10.195625 4.46375 9.39125 4.1875 8.5625 C3.795625 7.716875 3.40375 6.87125 3 6 C2.01 5.67 1.02 5.34 0 5 C0 3.35 0 1.7 0 0 Z " fill="#675631" transform="translate(19,4)"/>
<path d="M0 0 C0.33 0 0.66 0 1 0 C2 3 3 6 4 9 C1.03 9 -1.94 9 -5 9 C-5 7.35 -5 5.7 -5 4 C-5.66 3.67 -6.32 3.34 -7 3 C-4.69 3 -2.38 3 0 3 C0 2.01 0 1.02 0 0 Z " fill="#675048" transform="translate(17,6)"/>
<path d="M0 0 C0 0.66 0 1.32 0 2 C0.66 2.33 1.32 2.66 2 3 C-3.14285714 8.57142857 -3.14285714 8.57142857 -7 9 C-6.67 8.01 -6.34 7.02 -6 6 C-5.34 5.67 -4.68 5.34 -4 5 C-4.66 4.34 -5.32 3.68 -6 3 C-2.25 0 -2.25 0 0 0 Z " fill="#4C412D" transform="translate(25,22)"/>
<path d="M0 0 C1.5 1 1.5 1 3 3 C3.27345479 5.71846235 3.13491285 8.25677199 3 11 C2.01 11 1.02 11 0 11 C-0.19491452 9.54263913 -0.38069358 8.08405407 -0.5625 6.625 C-0.66691406 5.81289063 -0.77132813 5.00078125 -0.87890625 4.1640625 C-1 2 -1 2 0 0 Z " fill="#796949" transform="translate(1,12)"/>
<path d="M0 0 C0.33 0.66 0.66 1.32 1 2 C2.31328657 3.35308313 3.64499081 4.68870078 5 6 C3.68 5.67 2.36 5.34 1 5 C0.34 6.32 -0.32 7.64 -1 9 C-1 7.68 -1 6.36 -1 5 C-1.598125 4.896875 -2.19625 4.79375 -2.8125 4.6875 C-5.28243264 3.91123545 -6.32251235 2.92911079 -8 1 C-5.29120665 -0.35439668 -2.99066732 -0.06501451 0 0 Z " fill="#A18D56" transform="translate(19,0)"/>
<path d="M0 0 C1.9375 0.6875 1.9375 0.6875 4 2 C4.75 4.625 4.75 4.625 5 7 C1.88742431 7 -0.10765685 6.82638376 -3 6 C-2.67 5.01 -2.34 4.02 -2 3 C-1.01 3.33 -0.02 3.66 1 4 C1 3.34 1 2.68 1 2 C0.34 1.67 -0.32 1.34 -1 1 C-0.67 0.67 -0.34 0.34 0 0 Z " fill="#534732" transform="translate(8,22)"/>
<path d="M0 0 C2.74637817 0.37881078 3.80049058 0.77832287 5.6875 2.875 C7 5 7 5 8 8 C5.13822943 9.43088528 3.06624227 8.59991697 0 8 C0.99 7.34 1.98 6.68 3 6 C2.2575 5.071875 2.2575 5.071875 1.5 4.125 C0 2 0 2 0 0 Z " fill="#4F3E2C" transform="translate(18,9)"/>
<path d="M0 0 C0.99 0.66 1.98 1.32 3 2 C1 4 1 4 -1.625 4.125 C-2.40875 4.08375 -3.1925 4.0425 -4 4 C-4 3.01 -4 2.02 -4 1 C-4.66 1 -5.32 1 -6 1 C-6 1.99 -6 2.98 -6 4 C-6.66 4 -7.32 4 -8 4 C-8.33 3.01 -8.66 2.02 -9 1 C-5.98131566 -0.50934217 -3.32702771 -0.17510672 0 0 Z " fill="#74613F" transform="translate(18,16)"/>
<path d="M0 0 C4.7517398 0.43197635 6.92000054 1.32769295 10 5 C9.34 5 8.68 5 8 5 C8.33 6.32 8.66 7.64 9 9 C8.34 9 7.68 9 7 9 C6.6596875 7.824375 6.6596875 7.824375 6.3125 6.625 C5.21875 3.78125 5.21875 3.78125 2.375 2.6875 C1.59125 2.460625 0.8075 2.23375 0 2 C0 1.34 0 0.68 0 0 Z " fill="#7B6C44" transform="translate(18,1)"/>
<path d="M0 0 C0.99 0.99 1.98 1.98 3 3 C1.824375 3.928125 1.824375 3.928125 0.625 4.875 C-1.96837647 6.89858661 -1.96837647 6.89858661 -4 9 C-4.25 6.75 -4.25 6.75 -4 4 C-2 1.6875 -2 1.6875 0 0 Z " fill="#C1B494" transform="translate(8,2)"/>
<path d="M0 0 C2.4375 0.8125 2.4375 0.8125 5 2 C5.33 2.99 5.66 3.98 6 5 C3.69 4.67 1.38 4.34 -1 4 C-0.67 2.68 -0.34 1.36 0 0 Z " fill="#806A3F" transform="translate(15,10)"/>
<path d="M0 0 C2.31 0.66 4.62 1.32 7 2 C6.34 2.66 5.68 3.32 5 4 C5 4.99 5 5.98 5 7 C4.34 7 3.68 7 3 7 C1.66666667 5 0.33333333 3 -1 1 C-0.67 0.67 -0.34 0.34 0 0 Z " fill="#B4A579" transform="translate(10,1)"/>
<path d="M0 0 C0.33 0 0.66 0 1 0 C1.28571429 7.42857143 1.28571429 7.42857143 -1 11 C-1.33 9.35 -1.66 7.7 -2 6 C-2.66 6 -3.32 6 -4 6 C-3.67 5.34 -3.34 4.68 -3 4 C-2.01 4.33 -1.02 4.66 0 5 C0 3.35 0 1.7 0 0 Z " fill="#C0B795" transform="translate(31,12)"/>
<path d="M0 0 C0.66 0 1.32 0 2 0 C2 0.66 2 1.32 2 2 C2.66 2.33 3.32 2.66 4 3 C3.34 4.32 2.68 5.64 2 7 C1.34 7 0.68 7 0 7 C0 4.69 0 2.38 0 0 Z " fill="#928363" transform="translate(26,20)"/>
<path d="M0 0 C2.97 0.495 2.97 0.495 6 1 C6.33 1.99 6.66 2.98 7 4 C6.401875 3.835 5.80375 3.67 5.1875 3.5 C2.88655664 2.8885876 2.88655664 2.8885876 0 3 C0 2.01 0 1.02 0 0 Z " fill="#675535" transform="translate(3,23)"/>
<path d="M0 0 C0.94875 0.04125 1.8975 0.0825 2.875 0.125 C2.545 1.115 2.215 2.105 1.875 3.125 C-0.435 2.795 -2.745 2.465 -5.125 2.125 C-3.125 0.125 -3.125 0.125 0 0 Z " fill="#A1976E" transform="translate(16.125,-0.125)"/>
</svg>
